<svg version="1.1" id="Layer_1" xmlns="http://www.w3.org/2000/svg" xmlns:xlink="http://www.w3.org/1999/xlink" x="0px" y="0px"
	 width="100%" viewBox="0 0 512 512" enable-background="new 0 0 512 512" xml:space="preserve">
<path fill="#000000" opacity="1.000000" stroke="none" 
	d="
M338.000000,513.000000 
	C225.360703,513.000000 113.221397,513.000000 1.041047,513.000000 
	C1.041047,342.402344 1.041047,171.804672 1.041047,1.103501 
	C171.555969,1.103501 342.112030,1.103501 512.834045,1.103501 
	C512.834045,171.666534 512.834045,342.333252 512.834045,513.000000 
	C454.804657,513.000000 396.652313,513.000000 338.000000,513.000000 
M236.999466,328.500000 
	C236.999527,352.650696 236.980148,376.801453 237.010605,400.952118 
	C237.020737,408.987091 241.875259,414.565308 249.654480,416.009949 
	C263.898010,418.655121 278.139465,421.320068 292.342407,424.172729 
	C313.174500,428.356842 333.965393,432.745605 354.786133,436.986786 
	C374.356781,440.973358 393.991547,444.660614 413.504181,448.910706 
	C424.468689,451.298889 433.425018,445.017639 433.279175,433.684753 
	C432.633972,383.559540 432.716339,333.418488 433.213745,283.289917 
	C433.327881,271.785156 425.648224,266.932617 416.554749,266.949615 
	C362.590607,267.050446 308.625183,267.173065 254.662704,266.857574 
	C243.430420,266.791931 236.779236,272.949860 236.949280,284.529144 
	C237.159561,298.849915 236.999512,313.176147 236.999466,328.500000 
M394.500000,247.000748 
	C402.497223,247.000488 410.497925,247.146622 418.490723,246.958099 
	C426.223877,246.775681 433.213226,241.647888 433.153290,232.233795 
	C432.829590,181.419266 432.734009,130.599091 433.211304,79.786980 
	C433.313965,68.856514 425.074219,62.991383 414.498077,65.231766 
	C402.087952,67.860657 389.683350,70.524269 377.235413,72.963966 
	C354.390533,77.441383 331.503815,81.705177 308.657074,86.173218 
	C290.633270,89.698067 272.644135,93.399948 254.638000,97.015160 
	C242.131500,99.526176 236.862030,101.313377 236.944000,118.382538 
	C237.123199,155.702713 236.990738,193.024338 237.005280,230.345383 
	C237.009537,241.261566 242.731171,246.998367 253.546097,246.999146 
	C300.197388,247.002533 346.848694,247.000687 394.500000,247.000748 
M216.248596,116.739075 
	C213.809525,110.511398 209.588882,107.080559 202.575211,107.996468 
	C199.655640,108.377739 196.693619,108.531639 193.813889,109.105217 
	C160.652420,115.710258 127.506302,122.392303 94.348274,129.014679 
	C85.785248,130.724884 80.627747,136.047836 80.796898,145.189941 
	C81.342148,174.658737 81.141022,204.145096 80.899544,233.621994 
	C80.840385,240.843628 86.890320,246.908981 93.695847,246.934372 
	C130.169205,247.070496 166.643524,247.056549 203.117065,246.949432 
	C210.211212,246.928604 217.550812,240.573746 217.112793,232.271332 
	C216.622101,222.970581 217.015228,213.623947 216.997162,204.297333 
	C216.941055,175.323318 216.872345,146.349335 216.248596,116.739075 
M81.000038,323.500000 
	C81.000107,339.661469 80.988190,355.822906 81.007347,371.984375 
	C81.013298,377.002838 85.493935,382.891602 90.286072,383.963409 
	C95.360771,385.098419 100.489983,385.988586 105.591934,387.003021 
	C122.960548,390.456329 140.328888,393.911041 157.694931,397.377258 
	C172.023163,400.237122 186.308807,403.332886 200.688065,405.906677 
	C210.304718,407.627991 216.997696,401.514984 216.998627,391.728851 
	C217.002121,355.073914 217.004471,318.419006 216.996490,281.764069 
	C216.994659,273.307373 211.020279,267.046783 202.556107,267.030090 
	C166.567764,266.959137 130.579193,267.026764 94.590775,266.976013 
	C87.802223,266.966431 80.549644,272.791962 80.858353,281.018585 
	C81.376549,294.828064 81.000076,308.671082 81.000038,323.500000 
z"/>
<path fill="#0099E0" opacity="1.000000" stroke="none" 
	d="
M236.999466,328.000000 
	C236.999512,313.176147 237.159561,298.849915 236.949280,284.529144 
	C236.779236,272.949860 243.430420,266.791931 254.662704,266.857574 
	C308.625183,267.173065 362.590607,267.050446 416.554749,266.949615 
	C425.648224,266.932617 433.327881,271.785156 433.213745,283.289917 
	C432.716339,333.418488 432.633972,383.559540 433.279175,433.684753 
	C433.425018,445.017639 424.468689,451.298889 413.504181,448.910706 
	C393.991547,444.660614 374.356781,440.973358 354.786133,436.986786 
	C333.965393,432.745605 313.174500,428.356842 292.342407,424.172729 
	C278.139465,421.320068 263.898010,418.655121 249.654480,416.009949 
	C241.875259,414.565308 237.020737,408.987091 237.010605,400.952118 
	C236.980148,376.801453 236.999527,352.650696 236.999466,328.000000 
z"/>
<path fill="#0099E0" opacity="1.000000" stroke="none" 
	d="
M394.000000,247.000748 
	C346.848694,247.000687 300.197388,247.002533 253.546097,246.999146 
	C242.731171,246.998367 237.009537,241.261566 237.005280,230.345383 
	C236.990738,193.024338 237.123199,155.702713 236.944000,118.382538 
	C236.862030,101.313377 242.131500,99.526176 254.638000,97.015160 
	C272.644135,93.399948 290.633270,89.698067 308.657074,86.173218 
	C331.503815,81.705177 354.390533,77.441383 377.235413,72.963966 
	C389.683350,70.524269 402.087952,67.860657 414.498077,65.231766 
	C425.074219,62.991383 433.313965,68.856514 433.211304,79.786980 
	C432.734009,130.599091 432.829590,181.419266 433.153290,232.233795 
	C433.213226,241.647888 426.223877,246.775681 418.490723,246.958099 
	C410.497925,247.146622 402.497223,247.000488 394.000000,247.000748 
z"/>
<path fill="#0099E0" opacity="1.000000" stroke="none" 
	d="
M216.528564,117.057205 
	C216.872345,146.349335 216.941055,175.323318 216.997162,204.297333 
	C217.015228,213.623947 216.622101,222.970581 217.112793,232.271332 
	C217.550812,240.573746 210.211212,246.928604 203.117065,246.949432 
	C166.643524,247.056549 130.169205,247.070496 93.695847,246.934372 
	C86.890320,246.908981 80.840385,240.843628 80.899544,233.621994 
	C81.141022,204.145096 81.342148,174.658737 80.796898,145.189941 
	C80.627747,136.047836 85.785248,130.724884 94.348274,129.014679 
	C127.506302,122.392303 160.652420,115.710258 193.813889,109.105217 
	C196.693619,108.531639 199.655640,108.377739 202.575211,107.996468 
	C209.588882,107.080559 213.809525,110.511398 216.528564,117.057205 
z"/>
<path fill="#0099E0" opacity="1.000000" stroke="none" 
	d="
M81.000038,323.000000 
	C81.000076,308.671082 81.376549,294.828064 80.858353,281.018585 
	C80.549644,272.791962 87.802223,266.966431 94.590775,266.976013 
	C130.579193,267.026764 166.567764,266.959137 202.556107,267.030090 
	C211.020279,267.046783 216.994659,273.307373 216.996490,281.764069 
	C217.004471,318.419006 217.002121,355.073914 216.998627,391.728851 
	C216.997696,401.514984 210.304718,407.627991 200.688065,405.906677 
	C186.308807,403.332886 172.023163,400.237122 157.694931,397.377258 
	C140.328888,393.911041 122.960548,390.456329 105.591934,387.003021 
	C100.489983,385.988586 95.360771,385.098419 90.286072,383.963409 
	C85.493935,382.891602 81.013298,377.002838 81.007347,371.984375 
	C80.988190,355.822906 81.000107,339.661469 81.000038,323.000000 
z"/>
</svg>